<?xml version="1.0" encoding="UTF-8" standalone="no"?>
<svg class="foodit-logo" width="537px" height="200px" viewBox="0 0 537 200" version="1.1" xmlns="http://www.w3.org/2000/svg" xmlns:xlink="http://www.w3.org/1999/xlink" xmlns:sketch="http://www.bohemiancoding.com/sketch/ns">
    <g stroke="none" stroke-width="1" fill="none" fill-rule="evenodd">
        <g transform="translate(-78.000000, -230.000000)">
            <g transform="translate(78.000000, 230.000000)">
                <rect fill="#FFFFFF" x="47" y="39" width="452" height="132"></rect>
                <path d="M137.917045,58.3333333 L107.817358,58.3333333 L82.2215341,58.3333333 C81.3752047,58.3333333 80.6891192,59.0282602 80.6891192,59.8714193 L80.6891192,73.4619141 C80.6891192,74.3113755 81.3705783,75 82.2215341,75 L90.4274611,75 L90.4274611,131.944444 L82.2215341,131.944444 C81.3752047,131.944444 80.6891192,132.639371 80.6891192,133.48253 L80.6891192,147.073025 C80.6891192,147.922487 81.3705783,148.611111 82.2215341,148.611111 L123.674839,148.611111 C124.521168,148.611111 125.207254,147.916184 125.207254,147.073025 L125.207254,133.48253 C125.207254,132.633069 124.525795,131.944444 123.674839,131.944444 L108.34601,131.944444 L108.34601,114.066667 L133.493387,114.066667 C134.338447,114.066667 135.023503,113.37174 135.023503,112.528581 L135.023503,98.9380859 C135.023503,98.0886245 134.337247,97.4 133.493387,97.4 L108.34601,97.4 L108.34601,75 L130.493511,75 L130.493511,81.8071046 C130.493511,82.6500175 131.1857,83.3333333 132.029595,83.3333333 L146.614771,83.3333333 C147.463127,83.3333333 148.150855,82.6385976 148.150855,81.8071046 L148.150855,59.859562 C148.150855,59.0166492 147.458667,58.3333333 146.614771,58.3333333 L137.917045,58.3333333 Z M329.779212,148.472256 L318.793774,148.472256 C317.94949,148.472256 317.258487,147.783632 317.258487,146.93417 L317.258487,133.343675 C317.258487,132.500516 317.945858,131.805589 318.793774,131.805589 L326.930082,131.805589 L326.930059,75 L318.726997,75 C317.882713,75 317.19171,74.3113755 317.19171,73.4619141 L317.19171,59.8714193 C317.19171,59.0282602 317.879081,58.3333333 318.726997,58.3333333 L328.321244,58.3333333 L355.321492,58.3333333 C386.17256,58.3333333 397.947607,69.1748805 397.947606,103.4 C397.947606,137.62512 386.17256,148.466667 355.321492,148.466667 L329.779212,148.471695 L329.779212,148.472256 Z M6.1465143,0 C2.75188819,0 0,2.7511511 0,6.14974764 L0,193.850252 C0,197.246664 2.76122076,200 6.1465143,200 L530.853486,200 C534.248112,200 537,197.248849 537,193.850252 L537,6.14974764 C537,2.7533358 534.238779,0 530.853486,0 L6.1465143,0 Z M405.226321,147.916667 L415.103782,147.916667 L423.104526,102.95 L413.227065,102.95 L405.226321,147.916667 Z M419.746189,93.2861111 C423.302075,93.2861111 427.154285,91.2152778 427.154285,85.8902778 C427.154285,82.4388889 424.68492,80.7625 421.820456,80.7625 C417.770697,80.7625 414.313585,83.2277778 414.313585,88.4541667 C414.313585,91.8069444 416.585402,93.2861111 419.746189,93.2861111 Z M447.048326,111.430556 L457.320886,111.430556 L458.802505,102.95 L448.529946,102.95 L450.801762,90.2291667 L440.529202,91.8069444 L438.55371,102.95 L430.552966,103.936111 L429.268896,111.430556 L437.072091,111.430556 L432.923557,135.294444 C431.441938,143.183333 434.306402,148.902778 443.294891,148.902778 C446.25813,148.902778 449.418917,148.2125 451.591959,147.325 L452.678479,138.647222 C450.900536,139.3375 448.727495,139.830556 447.147101,139.830556 C443.68999,139.830556 442.307145,137.956944 443.097342,134.0125 L447.048326,111.430556 Z M466.448495,148.508333 C470.992127,148.508333 474.646788,145.352778 474.646788,140.619444 C474.646788,137.168056 471.979873,134.406944 468.423987,134.406944 C463.584031,134.406944 459.92937,137.661111 459.92937,142.394444 C459.92937,145.747222 462.596285,148.508333 466.448495,148.508333 Z M345.282653,131.800002 L345.282653,75.0000079 L353.919171,75 C372.616788,75 379.294508,82.4666667 379.294508,103.4 C379.294508,125 372.616788,131.8 353.919171,131.8 L345.282653,131.800002 Z M228.912249,103.477778 C228.912249,77.2111111 218.762114,56.9444444 189.780808,56.9444444 C160.398839,56.9444444 150.248705,77.2111111 150.248705,103.477778 C150.248705,129.611111 160.665948,149.744444 189.513699,149.744444 C218.094342,149.744444 228.912249,129.611111 228.912249,103.477778 Z M171.617409,103.477778 C171.617409,86.1444444 175.624041,74.2777778 189.780808,74.2777778 C203.804021,74.2777778 207.677098,86.1444444 207.677098,103.477778 C207.677098,120.544444 203.937575,132.411111 189.513699,132.411111 C174.689161,132.411111 171.617409,120.544444 171.617409,103.477778 Z M314.659741,103.677778 C314.659741,77.4111111 304.509606,57.1444444 275.528301,57.1444444 C246.146332,57.1444444 235.996197,77.4111111 235.996197,103.677778 C235.996197,129.811111 246.41344,149.944444 275.261192,149.944444 C303.841834,149.944444 314.659741,129.811111 314.659741,103.677778 Z M257.364902,103.677778 C257.364902,86.3444444 261.371534,74.4777778 275.528301,74.4777778 C289.551513,74.4777778 293.424591,86.3444444 293.424591,103.677778 C293.424591,120.744444 289.685067,132.611111 275.261192,132.611111 C260.436653,132.611111 257.364902,120.744444 257.364902,103.677778 Z" fill="#C83C3C"></path>
            </g>
        </g>
    </g>
</svg>
